{"title":"Pure Mature - An Evening In Ava Addams.mp4","uid":9118815,"size":538243572,"categoryP":"porn","categoryS":"movie_clips","magnet":"?xt=urn:btih:2878f64e6d14a9315d329e972d323b2deb8e03ed&amp;dn=Pure+Mature+-+An+Evening+In+Ava+Addams.mp4&amp;tr=udp%3A%2F%2Ftracker.openbittorrent.com%3A80&amp;tr=udp%3A%2F%2Fopen.demonii.com%3A1337&amp;tr=udp%3A%2F%2Ftracker.coppersurfer.tk%3A6969&amp;tr=udp%3A%2F%2Fexodus.desync.com%3A6969","seeders":1,"leechers":1,"uploader":null,"files":1,"time":1383085252,"description":" &lt;a href=&quot;http://bayimg.com/jAbOiAaFj&quot; rel=&quot;nofollow&quot; target=&quot;_NEW&quot;&gt;http://bayimg.com/jAbOiAaFj&lt;/a&gt;\n\n\nAva makes sure that she and her huge tits are fucked hard \n\nFormat : MPEG-4\nFormat profile : Base Media\nCodec ID : isom\nFile size : 513 MiB\nDuration : 27mn 5s\nOverall bit rate : 2 649 Kbps\nEncoded date : UTC 2013-10-21 21:14:26\nTagged date : UTC 2013-10-21 21:14:26\nWriting application : Lavf53.24.0\n\nVideo\nID : 1\nFormat : AVC\nFormat/Info : Advanced Video Codec\nFormat profile : &lt;a class=&quot;__cf_email__&quot; href=&quot;/cdn-cgi/l/email-protection&quot; data-cfemail=&quot;a8e0c1cfc0e8e49b8699&quot;&gt;[email&amp;#160;protected]&lt;/a&gt;&lt;script cf-hash='f9e31' type=&quot;text/javascript&quot;&gt;\n/* &lt;![CDATA[ */!function(){try{var t=&quot;currentScript&quot;in document?document.currentScript:function(){for(var t=document.getElementsByTagName(&quot;script&quot;),e=t.length;e--;)if(t[e].getAttribute(&quot;cf-hash&quot;))return t[e]}();if(t&amp;&amp;t.previousSibling){var e,r,n,i,c=t.previousSibling,a=c.getAttribute(&quot;data-cfemail&quot;);if(a){for(e=&quot;&quot;,r=parseInt(a.substr(0,2),16),n=2;a.length-n;n+=2)i=parseInt(a.substr(n,2),16)^r,e+=String.fromCharCode(i);e=document.createTextNode(e),c.parentNode.replaceChild(e,c)}}}catch(u){}}();/* ]]&gt; */&lt;/script&gt;\nFormat settings, CABAC : Yes\nFormat settings, ReFrames : 5 frames\nCodec ID : avc1\nCodec ID/Info : Advanced Video Coding\nDuration : 27mn 5s\nBit rate : 2 500 Kbps\nWidth : 950 pixels\nHeight : 534 pixels\nDisplay aspect ratio : 16:9\nOriginal display aspect ratio : 16:9\nFrame rate mode : Constant\nFrame rate : 24.000 fps\nColor space : YUV\nChroma subsampling : 4:2:0\nBit depth : 8 bits\nScan type : Progressive\nBits/(Pixel*Frame) : 0.205\nStream size : 487 MiB (95%)\nWriting library : x264 core 119 r2106 07efeb4\n\nAudio\nID : 2\nFormat : AAC\nFormat/Info : Advanced Audio Codec\nFormat profile : LC\nCodec ID : 40\nDuration : 27mn 5s\nBit rate mode : Constant\nBit rate : 128 Kbps\nChannel(s) : 2 channels\nChannel positions : Front: L R\nSampling rate : 48.0 KHz\nCompression mode : Lossy\nDelay relative to video : 83ms\nStream size : 24.8 MiB (5%)\nLanguage : English\nEncoded date : UTC 2013-10-21 21:14:26\nTagged date : UTC 2013-10-21 21:14:26\n","torrent":{"xt":"urn:btih:2878f64e6d14a9315d329e972d323b2deb8e03ed","amp;dn":"Pure+Mature+-+An+Evening+In+Ava+Addams.mp4","amp;tr":["udp%3A%2F%2Ftracker.openbittorrent.com%3A80","udp%3A%2F%2Fopen.demonii.com%3A1337","udp%3A%2F%2Ftracker.coppersurfer.tk%3A6969","udp%3A%2F%2Fexodus.desync.com%3A6969"],"infoHash":"2878f64e6d14a9315d329e972d323b2deb8e03ed","infoHashBuffer":{"type":"Buffer","data":[40,120,246,78,109,20,169,49,93,50,158,151,45,50,59,45,235,142,3,237]},"announce":[],"urlList":[]}}